<mxfile host="app.diagrams.net" modified="2024-02-02T03:39:25.295Z" agent="Mozilla/5.0 (Windows NT 10.0; Win64; x64) AppleWebKit/537.36 (KHTML, like Gecko) Chrome/121.0.0.0 Safari/537.36" etag="Q66ricaU8DOI9OOIXsHq" version="23.1.1" type="github">
  <diagram name="Page-1" id="JEFca6JZ0m7m3M1wdJdo">
    <mxGraphModel dx="1434" dy="772" grid="1" gridSize="10" guides="1" tooltips="1" connect="1" arrows="1" fold="1" page="1" pageScale="1" pageWidth="850" pageHeight="1100" math="0" shadow="0">
      <root>
        <mxCell id="0" />
        <mxCell id="1" parent="0" />
        <mxCell id="DKC6nevXiSsA-YRTRsQ--2" style="edgeStyle=orthogonalEdgeStyle;rounded=0;orthogonalLoop=1;jettySize=auto;html=1;" edge="1" parent="1" source="DKC6nevXiSsA-YRTRsQ--1">
          <mxGeometry relative="1" as="geometry">
            <mxPoint x="540" y="360" as="targetPoint" />
            <Array as="points">
              <mxPoint x="490" y="210" />
              <mxPoint x="490" y="210" />
            </Array>
          </mxGeometry>
        </mxCell>
        <mxCell id="DKC6nevXiSsA-YRTRsQ--1" value="" style="rounded=0;whiteSpace=wrap;html=1;" vertex="1" parent="1">
          <mxGeometry x="295" y="160" width="260" height="370" as="geometry" />
        </mxCell>
        <mxCell id="DKC6nevXiSsA-YRTRsQ--3" value="Perpus Digital" style="text;html=1;strokeColor=none;fillColor=none;align=center;verticalAlign=middle;whiteSpace=wrap;rounded=0;" vertex="1" parent="1">
          <mxGeometry x="380" y="170" width="80" height="30" as="geometry" />
        </mxCell>
        <mxCell id="DKC6nevXiSsA-YRTRsQ--4" value="" style="ellipse;whiteSpace=wrap;html=1;" vertex="1" parent="1">
          <mxGeometry x="346.25" y="210" width="147.5" height="60" as="geometry" />
        </mxCell>
        <mxCell id="DKC6nevXiSsA-YRTRsQ--5" value="" style="ellipse;whiteSpace=wrap;html=1;" vertex="1" parent="1">
          <mxGeometry x="346.25" y="290" width="150" height="60" as="geometry" />
        </mxCell>
        <mxCell id="DKC6nevXiSsA-YRTRsQ--6" value="" style="ellipse;whiteSpace=wrap;html=1;" vertex="1" parent="1">
          <mxGeometry x="353" y="370" width="143.75" height="60" as="geometry" />
        </mxCell>
        <mxCell id="DKC6nevXiSsA-YRTRsQ--7" value="" style="ellipse;whiteSpace=wrap;html=1;" vertex="1" parent="1">
          <mxGeometry x="349.88" y="450" width="150" height="60" as="geometry" />
        </mxCell>
        <mxCell id="DKC6nevXiSsA-YRTRsQ--22" style="edgeStyle=orthogonalEdgeStyle;rounded=0;orthogonalLoop=1;jettySize=auto;html=1;exitX=1;exitY=0.5;exitDx=0;exitDy=0;" edge="1" parent="1" source="DKC6nevXiSsA-YRTRsQ--8">
          <mxGeometry relative="1" as="geometry">
            <mxPoint x="500" y="240" as="targetPoint" />
          </mxGeometry>
        </mxCell>
        <mxCell id="DKC6nevXiSsA-YRTRsQ--8" value="Form Pengunjung" style="text;html=1;strokeColor=none;fillColor=none;align=center;verticalAlign=middle;whiteSpace=wrap;rounded=0;" vertex="1" parent="1">
          <mxGeometry x="350" y="230" width="150" height="30" as="geometry" />
        </mxCell>
        <mxCell id="DKC6nevXiSsA-YRTRsQ--9" value="Pencarian Buku" style="text;html=1;strokeColor=none;fillColor=none;align=center;verticalAlign=middle;whiteSpace=wrap;rounded=0;" vertex="1" parent="1">
          <mxGeometry x="376.88" y="305" width="88.75" height="30" as="geometry" />
        </mxCell>
        <mxCell id="DKC6nevXiSsA-YRTRsQ--10" value="Detail Buku" style="text;html=1;strokeColor=none;fillColor=none;align=center;verticalAlign=middle;whiteSpace=wrap;rounded=0;" vertex="1" parent="1">
          <mxGeometry x="384.88" y="385" width="80" height="30" as="geometry" />
        </mxCell>
        <mxCell id="DKC6nevXiSsA-YRTRsQ--11" value="Laporan Statistik" style="text;html=1;strokeColor=none;fillColor=none;align=center;verticalAlign=middle;whiteSpace=wrap;rounded=0;" vertex="1" parent="1">
          <mxGeometry x="375" y="465" width="100" height="30" as="geometry" />
        </mxCell>
        <mxCell id="DKC6nevXiSsA-YRTRsQ--12" value="" style="endArrow=none;html=1;rounded=0;exitX=0;exitY=0;exitDx=0;exitDy=0;" edge="1" parent="1" source="DKC6nevXiSsA-YRTRsQ--8">
          <mxGeometry width="50" height="50" relative="1" as="geometry">
            <mxPoint x="340" y="230" as="sourcePoint" />
            <mxPoint x="170" y="300" as="targetPoint" />
            <Array as="points">
              <mxPoint x="250" y="233" />
            </Array>
          </mxGeometry>
        </mxCell>
        <mxCell id="DKC6nevXiSsA-YRTRsQ--17" value="" style="endArrow=none;html=1;rounded=0;entryX=0;entryY=0.5;entryDx=0;entryDy=0;" edge="1" parent="1" target="DKC6nevXiSsA-YRTRsQ--5">
          <mxGeometry width="50" height="50" relative="1" as="geometry">
            <mxPoint x="180" y="370" as="sourcePoint" />
            <mxPoint x="450" y="370" as="targetPoint" />
          </mxGeometry>
        </mxCell>
        <mxCell id="DKC6nevXiSsA-YRTRsQ--19" value="" style="endArrow=none;html=1;rounded=0;entryX=1;entryY=0;entryDx=0;entryDy=0;" edge="1" parent="1" target="DKC6nevXiSsA-YRTRsQ--8">
          <mxGeometry width="50" height="50" relative="1" as="geometry">
            <mxPoint x="690" y="300" as="sourcePoint" />
            <mxPoint x="500" y="230" as="targetPoint" />
            <Array as="points">
              <mxPoint x="620" y="230" />
            </Array>
          </mxGeometry>
        </mxCell>
        <mxCell id="DKC6nevXiSsA-YRTRsQ--20" value="Pustakawan" style="shape=umlActor;verticalLabelPosition=bottom;verticalAlign=top;html=1;outlineConnect=0;" vertex="1" parent="1">
          <mxGeometry x="690" y="270" width="110" height="250" as="geometry" />
        </mxCell>
        <mxCell id="DKC6nevXiSsA-YRTRsQ--23" value="Pengunjung" style="shape=umlActor;verticalLabelPosition=bottom;verticalAlign=top;html=1;outlineConnect=0;" vertex="1" parent="1">
          <mxGeometry x="60" y="270" width="100" height="250" as="geometry" />
        </mxCell>
        <mxCell id="DKC6nevXiSsA-YRTRsQ--24" value="" style="endArrow=none;html=1;rounded=0;entryX=1;entryY=0.5;entryDx=0;entryDy=0;" edge="1" parent="1" target="DKC6nevXiSsA-YRTRsQ--5">
          <mxGeometry width="50" height="50" relative="1" as="geometry">
            <mxPoint x="660" y="360" as="sourcePoint" />
            <mxPoint x="450" y="370" as="targetPoint" />
          </mxGeometry>
        </mxCell>
        <mxCell id="DKC6nevXiSsA-YRTRsQ--25" value="" style="endArrow=none;html=1;rounded=0;exitX=1;exitY=0.5;exitDx=0;exitDy=0;" edge="1" parent="1" source="DKC6nevXiSsA-YRTRsQ--6">
          <mxGeometry width="50" height="50" relative="1" as="geometry">
            <mxPoint x="400" y="420" as="sourcePoint" />
            <mxPoint x="660" y="390" as="targetPoint" />
          </mxGeometry>
        </mxCell>
        <mxCell id="DKC6nevXiSsA-YRTRsQ--26" value="" style="endArrow=none;html=1;rounded=0;exitX=1;exitY=0.5;exitDx=0;exitDy=0;" edge="1" parent="1" source="DKC6nevXiSsA-YRTRsQ--7">
          <mxGeometry width="50" height="50" relative="1" as="geometry">
            <mxPoint x="400" y="420" as="sourcePoint" />
            <mxPoint x="670" y="410" as="targetPoint" />
          </mxGeometry>
        </mxCell>
        <mxCell id="DKC6nevXiSsA-YRTRsQ--27" value="" style="endArrow=none;html=1;rounded=0;exitX=0;exitY=0.5;exitDx=0;exitDy=0;" edge="1" parent="1" source="DKC6nevXiSsA-YRTRsQ--6">
          <mxGeometry width="50" height="50" relative="1" as="geometry">
            <mxPoint x="400" y="420" as="sourcePoint" />
            <mxPoint x="180" y="390" as="targetPoint" />
          </mxGeometry>
        </mxCell>
      </root>
    </mxGraphModel>
  </diagram>
</mxfile>
